<svg xmlns="http://www.w3.org/2000/svg" width="65" height="64" fill="none" viewBox="0 0 65 64"><g clip-path="url(#clip0_93_112)"><mask id="mask0_93_112" style="mask-type:alpha" width="65" height="64" x="0" y="0" maskUnits="userSpaceOnUse"><path fill="#000" d="M32.4399 64C50.1131 64 64.4399 49.6731 64.4399 32C64.4399 14.3269 50.1131 0 32.4399 0C14.7668 0 0.439941 14.3269 0.439941 32C0.439941 49.6731 14.7668 64 32.4399 64Z"/></mask><g mask="url(#mask0_93_112)"><path fill="#000" stroke="#fff" stroke-width="6" d="M32.4399 62.9333C49.5239 62.9333 63.3733 49.084 63.3733 32C63.3733 14.916 49.5239 1.06665 32.4399 1.06665C15.3559 1.06665 1.50659 14.916 1.50659 32C1.50659 49.084 15.3559 62.9333 32.4399 62.9333Z"/><path fill="url(#paint0_linear_93_112)" d="M53.5983 56.0071L25.0237 19.2H19.6399V44.7893H23.947V24.6697L50.2173 58.6115C51.4027 57.8183 52.532 56.9475 53.5983 56.0071Z"/><path fill="url(#paint1_linear_93_112)" d="M45.5955 19.2H41.3289V44.8H45.5955V19.2Z"/></g></g><defs><linearGradient id="paint0_linear_93_112" x1="39.195" x2="51.818" y1="41.422" y2="57.067" gradientUnits="userSpaceOnUse"><stop stop-color="#fff"/><stop offset="1" stop-color="#fff" stop-opacity="0"/></linearGradient><linearGradient id="paint1_linear_93_112" x1="43.462" x2="43.391" y1="19.2" y2="38" gradientUnits="userSpaceOnUse"><stop stop-color="#fff"/><stop offset="1" stop-color="#fff" stop-opacity="0"/></linearGradient><clipPath id="clip0_93_112"><rect width="64" height="64" fill="#fff" transform="translate(0.439941)"/></clipPath></defs></svg>